<svg id="svg" version="1.1" xmlns="http://www.w3.org/2000/svg" xmlns:xlink="http://www.w3.org/1999/xlink" width="400" height="400" viewBox="0, 0, 400,400"><g id="svgg"><path id="path0" d="M164.267 76.667 C 164.120 76.813,164.000 93.733,164.000 114.267 L 164.000 151.600 170.400 151.600 L 176.800 151.600 176.800 152.551 C 176.800 154.267,177.204 154.315,190.585 154.182 C 204.147 154.048,204.400 154.010,204.400 152.128 C 204.400 151.712,207.837 151.588,221.700 151.504 L 239.000 151.400 239.102 114.225 C 239.183 84.749,239.100 76.984,238.702 76.731 C 238.099 76.348,164.649 76.284,164.267 76.667 M227.726 86.860 C 228.207 87.113,228.732 87.518,228.894 87.760 C 229.558 88.755,229.246 140.297,228.571 140.971 C 227.586 141.957,175.568 141.925,174.749 140.939 C 174.296 140.393,174.200 135.700,174.200 114.103 L 174.200 87.929 175.144 87.165 C 176.293 86.234,225.990 85.946,227.726 86.860 M76.598 161.698 C 76.478 162.194,76.430 179.070,76.490 199.200 L 76.600 235.800 114.102 235.902 L 151.604 236.004 151.502 198.502 L 151.400 161.000 114.108 160.898 L 76.816 160.796 76.598 161.698 M248.669 161.065 C 248.521 161.212,248.400 178.134,248.400 198.669 L 248.400 236.004 285.900 235.902 L 323.400 235.800 323.400 198.400 L 323.400 161.000 286.169 160.898 C 265.692 160.842,248.817 160.917,248.669 161.065 M140.939 171.549 C 141.925 172.368,141.957 224.386,140.971 225.371 C 140.297 226.046,88.755 226.358,87.760 225.694 C 86.458 224.824,86.400 223.676,86.400 198.652 C 86.400 172.738,86.453 171.878,88.094 171.210 C 89.675 170.567,140.146 170.891,140.939 171.549 M312.126 171.260 C 312.607 171.513,313.132 171.918,313.294 172.160 C 313.456 172.402,313.591 184.335,313.594 198.677 L 313.600 224.755 312.711 225.377 C 311.929 225.925,308.724 226.000,286.000 226.000 C 263.276 226.000,260.071 225.925,259.289 225.377 L 258.400 224.755 258.406 198.677 C 258.409 184.335,258.544 172.405,258.706 172.166 C 259.578 170.877,260.643 170.824,285.926 170.812 C 304.257 170.803,311.494 170.927,312.126 171.260 M160.984 248.900 C 160.879 249.175,160.840 266.050,160.897 286.400 L 161.000 323.400 198.400 323.400 L 235.800 323.400 235.902 285.900 L 236.004 248.400 198.589 248.400 C 169.026 248.400,161.135 248.505,160.984 248.900 M225.377 259.289 C 225.925 260.071,226.000 263.276,226.000 286.000 C 226.000 308.724,225.925 311.929,225.377 312.711 L 224.755 313.600 198.677 313.594 C 184.335 313.591,172.402 313.456,172.160 313.294 C 170.857 312.424,170.800 311.279,170.800 286.000 C 170.800 260.721,170.857 259.576,172.160 258.706 C 172.402 258.544,184.335 258.409,198.677 258.406 L 224.755 258.400 225.377 259.289 " stroke="none" fill="#fcfcfc" fill-rule="evenodd"></path><path id="path1" d="M0.000 30.400 L 0.000 60.800 28.600 60.800 C 49.480 60.800,57.200 60.679,57.200 60.351 C 57.200 60.041,57.385 60.056,57.800 60.400 C 58.219 60.748,58.400 60.762,58.400 60.446 C 58.400 60.123,58.627 60.135,59.190 60.487 C 59.818 60.879,60.083 60.877,60.480 60.480 C 60.877 60.083,60.879 59.818,60.487 59.190 C 60.135 58.627,60.123 58.400,60.446 58.400 C 60.762 58.400,60.748 58.219,60.400 57.800 C 60.056 57.385,60.041 57.200,60.351 57.200 C 60.679 57.200,60.800 49.480,60.800 28.600 L 60.800 0.000 30.400 0.000 L 0.000 0.000 0.000 30.400 M82.819 30.198 C 82.853 51.142,83.000 60.476,83.296 60.659 C 83.569 60.828,83.608 60.721,83.403 60.362 C 83.144 59.907,83.186 59.896,83.621 60.300 C 84.410 61.032,141.197 61.032,141.206 60.300 C 141.211 59.916,141.289 59.920,141.542 60.320 C 141.744 60.639,142.509 60.802,143.518 60.743 L 145.164 60.646 145.191 30.323 L 145.217 0.000 113.993 0.000 L 82.768 0.000 82.819 30.198 M167.208 28.614 C 167.221 45.303,167.379 57.137,167.587 57.008 C 168.162 56.653,168.536 57.624,168.021 58.135 C 167.664 58.490,167.620 58.410,167.835 57.800 C 168.048 57.198,168.001 57.107,167.646 57.433 C 167.064 57.967,167.508 59.301,168.142 58.921 C 168.399 58.767,168.370 58.930,168.074 59.295 C 166.941 60.693,168.439 60.764,199.951 60.791 C 231.030 60.817,232.400 60.759,232.400 59.410 C 232.400 58.492,231.715 58.343,230.955 59.096 C 230.346 59.700,230.280 59.707,230.491 59.149 C 230.627 58.791,230.527 58.283,230.269 58.020 C 230.011 57.758,229.980 57.575,230.200 57.615 C 232.790 58.080,232.616 60.324,232.490 28.100 L 232.379 0.000 199.782 0.000 L 167.186 0.000 167.208 28.614 M254.810 30.395 L 254.836 60.790 285.418 60.790 C 316.406 60.790,316.268 60.795,316.037 59.470 C 316.006 59.289,316.157 59.250,316.373 59.383 C 316.588 59.516,316.652 59.919,316.515 60.278 C 316.354 60.696,316.423 60.833,316.705 60.659 C 317.019 60.464,317.157 51.720,317.186 30.193 L 317.225 0.000 286.004 0.000 L 254.783 0.000 254.810 30.395 M339.200 28.600 C 339.200 49.480,339.321 57.200,339.649 57.200 C 339.959 57.200,339.944 57.385,339.600 57.800 C 339.220 58.258,339.212 58.533,339.568 58.961 C 339.924 59.390,339.918 59.561,339.546 59.685 C 336.675 60.642,340.971 60.800,369.824 60.800 L 400.000 60.800 400.000 30.400 L 400.000 0.000 369.600 0.000 L 339.200 0.000 339.200 28.600 M231.031 57.950 C 230.912 58.142,231.261 58.300,231.807 58.300 C 232.353 58.300,232.800 58.142,232.800 57.950 C 232.800 57.758,232.451 57.600,232.024 57.600 C 231.597 57.600,231.150 57.758,231.031 57.950 M0.000 113.993 L 0.000 145.217 30.323 145.191 L 60.646 145.164 60.743 143.518 C 60.802 142.509,60.639 141.744,60.320 141.542 C 59.920 141.289,59.916 141.211,60.300 141.206 C 61.032 141.197,61.032 84.410,60.300 83.621 C 59.896 83.186,59.907 83.144,60.362 83.403 C 60.721 83.608,60.828 83.569,60.659 83.296 C 60.476 83.000,51.142 82.853,30.198 82.819 L 0.000 82.768 0.000 113.993 M83.250 83.340 C 82.937 83.717,82.817 92.762,82.835 114.535 L 82.860 145.200 114.030 145.200 L 145.200 145.200 145.200 114.030 L 145.200 82.860 114.445 82.835 C 89.351 82.814,83.609 82.907,83.250 83.340 M254.800 114.030 L 254.800 145.200 285.982 145.200 L 317.164 145.200 317.191 114.580 C 317.213 88.452,317.133 83.876,316.642 83.385 C 316.151 82.894,311.572 82.813,285.433 82.835 L 254.800 82.860 254.800 114.030 M339.443 83.091 C 338.927 83.606,339.178 141.200,339.695 141.206 C 340.090 141.211,340.087 141.284,339.680 141.542 C 339.361 141.745,339.198 142.510,339.258 143.527 L 339.355 145.181 369.678 145.195 L 400.000 145.209 400.000 113.989 L 400.000 82.768 369.832 82.818 C 353.240 82.846,339.565 82.969,339.443 83.091 M176.185 89.297 C 176.079 89.574,176.039 100.960,176.096 114.600 L 176.200 139.400 201.600 139.400 L 227.000 139.400 227.000 114.200 L 227.000 89.000 201.689 88.897 C 181.652 88.815,176.337 88.899,176.185 89.297 M0.000 199.782 L 0.000 232.379 28.100 232.490 C 60.324 232.616,58.080 232.790,57.615 230.200 C 57.575 229.980,57.758 230.011,58.020 230.269 C 58.283 230.527,58.791 230.627,59.149 230.491 C 59.707 230.280,59.700 230.346,59.096 230.955 C 58.343 231.715,58.492 232.400,59.410 232.400 C 60.759 232.400,60.817 231.030,60.791 199.951 C 60.764 168.439,60.693 166.941,59.295 168.074 C 58.930 168.370,58.767 168.399,58.921 168.142 C 59.301 167.508,57.967 167.064,57.433 167.646 C 57.107 168.001,57.198 168.048,57.800 167.835 C 58.410 167.620,58.490 167.664,58.135 168.021 C 57.624 168.536,56.653 168.162,57.008 167.587 C 57.137 167.379,45.303 167.221,28.614 167.208 L 0.000 167.186 0.000 199.782 M170.400 167.613 C 170.400 167.784,170.067 167.838,169.660 167.731 C 169.252 167.625,168.608 167.849,168.229 168.229 C 167.849 168.608,167.625 169.252,167.731 169.660 C 167.838 170.067,167.784 170.400,167.613 170.400 C 167.124 170.400,167.241 172.565,167.747 172.894 C 168.070 173.103,168.055 173.190,167.695 173.194 C 167.294 173.199,167.194 178.964,167.205 201.400 C 167.214 217.392,167.373 229.600,167.573 229.600 C 167.766 229.600,167.824 229.988,167.700 230.463 C 167.546 231.049,167.621 231.234,167.932 231.042 C 168.225 230.861,168.309 230.973,168.163 231.352 C 168.000 231.777,168.369 232.064,169.468 232.368 C 170.475 232.646,171.046 232.655,171.134 232.393 C 171.208 232.174,171.423 232.091,171.613 232.208 C 172.104 232.511,230.492 232.493,231.283 232.190 C 231.643 232.051,232.051 231.643,232.190 231.283 C 232.493 230.492,232.511 172.104,232.208 171.613 C 232.091 171.423,232.174 171.208,232.393 171.134 C 232.655 171.046,232.646 170.475,232.368 169.468 C 232.064 168.369,231.777 168.000,231.352 168.163 C 230.973 168.309,230.861 168.225,231.042 167.932 C 231.234 167.621,231.049 167.546,230.463 167.700 C 229.988 167.824,229.600 167.766,229.600 167.573 C 229.600 167.373,217.392 167.214,201.400 167.205 C 178.964 167.194,173.199 167.294,173.194 167.695 C 173.190 168.055,173.103 168.070,172.894 167.747 C 172.565 167.241,170.400 167.124,170.400 167.613 M341.219 167.580 C 340.900 167.782,340.507 167.866,340.347 167.767 C 340.186 167.668,339.950 167.757,339.821 167.966 C 339.692 168.174,339.798 168.475,340.055 168.634 C 340.320 168.798,340.417 168.751,340.279 168.528 C 340.145 168.311,340.294 168.133,340.611 168.133 C 341.032 168.133,341.074 168.270,340.764 168.643 C 340.532 168.923,340.085 169.054,339.771 168.933 C 339.076 168.667,339.021 169.261,339.680 169.920 C 340.042 170.282,340.045 170.400,339.690 170.400 C 339.334 170.400,339.216 177.598,339.205 200.000 C 339.194 222.925,339.300 229.600,339.675 229.600 C 340.052 229.600,340.053 229.707,339.680 230.080 C 338.987 230.773,339.090 231.328,339.857 231.034 C 340.404 230.824,340.429 230.883,340.012 231.386 C 339.451 232.061,340.372 232.712,341.181 232.212 C 341.411 232.069,341.600 232.107,341.600 232.295 C 341.600 232.484,342.365 232.613,343.300 232.582 C 344.235 232.552,357.375 232.498,372.500 232.463 L 400.000 232.400 400.000 199.793 L 400.000 167.186 371.300 167.293 L 342.600 167.400 342.651 168.944 C 342.682 169.873,342.574 170.281,342.380 169.967 C 342.203 169.681,342.121 168.941,342.200 168.323 C 342.350 167.133,342.157 166.986,341.219 167.580 M88.800 198.600 L 88.800 224.000 114.200 224.000 L 139.600 224.000 139.600 198.600 L 139.600 173.200 114.200 173.200 L 88.800 173.200 88.800 198.600 M260.585 173.697 C 260.479 173.974,260.439 185.360,260.496 199.000 L 260.600 223.800 286.000 223.800 L 311.400 223.800 311.400 198.600 L 311.400 173.400 286.089 173.297 C 266.052 173.215,260.737 173.299,260.585 173.697 M57.867 231.067 C 57.476 231.457,57.541 232.800,57.950 232.800 C 58.142 232.800,58.300 232.350,58.300 231.800 C 58.300 230.718,58.269 230.665,57.867 231.067 M0.000 286.004 L 0.000 317.225 30.193 317.186 C 51.720 317.157,60.464 317.019,60.659 316.705 C 60.833 316.423,60.696 316.354,60.278 316.515 C 59.919 316.652,59.516 316.588,59.383 316.373 C 59.250 316.157,59.289 316.006,59.470 316.037 C 60.795 316.268,60.790 316.406,60.790 285.418 L 60.790 254.836 30.395 254.810 L 0.000 254.783 0.000 286.004 M82.835 285.433 C 82.813 311.572,82.894 316.151,83.385 316.642 C 83.876 317.133,88.452 317.213,114.580 317.191 L 145.200 317.164 145.200 285.982 L 145.200 254.800 114.030 254.800 L 82.860 254.800 82.835 285.433 M255.067 255.067 C 254.912 255.221,254.797 269.263,254.810 286.271 L 254.833 317.195 285.916 317.097 L 317.000 317.000 317.097 285.916 L 317.195 254.833 286.271 254.810 C 269.263 254.797,255.221 254.912,255.067 255.067 M339.789 255.322 C 339.181 256.030,339.121 258.103,339.698 258.469 C 340.098 258.723,340.099 258.789,339.700 258.794 C 339.305 258.799,339.200 264.654,339.200 286.720 C 339.200 308.502,339.310 314.758,339.700 315.179 C 340.100 315.610,340.100 315.661,339.700 315.435 C 339.425 315.280,339.200 315.307,339.200 315.496 C 339.200 315.685,339.425 316.082,339.700 316.379 C 340.104 316.814,340.093 316.856,339.638 316.597 C 339.262 316.382,339.171 316.429,339.362 316.738 C 339.573 317.081,347.445 317.200,369.824 317.200 L 400.000 317.200 400.000 285.995 L 400.000 254.791 370.100 254.817 C 347.432 254.837,340.101 254.959,339.789 255.322 M173.385 260.897 C 173.279 261.174,173.239 272.650,173.296 286.400 L 173.400 311.400 198.600 311.400 L 223.800 311.400 223.800 286.000 L 223.800 260.600 198.689 260.497 C 178.812 260.415,173.537 260.499,173.385 260.897 M0.000 369.600 L 0.000 400.000 30.400 400.000 L 60.800 400.000 60.800 369.824 C 60.800 340.971,60.642 336.675,59.685 339.546 C 59.561 339.918,59.390 339.924,58.961 339.568 C 58.533 339.212,58.258 339.220,57.800 339.600 C 57.385 339.944,57.200 339.959,57.200 339.649 C 57.200 339.321,49.480 339.200,28.600 339.200 L 0.000 339.200 0.000 369.600 M83.091 339.443 C 82.969 339.565,82.846 353.240,82.818 369.832 L 82.768 400.000 113.989 400.000 L 145.209 400.000 145.195 369.678 L 145.181 339.355 143.527 339.258 C 142.510 339.198,141.745 339.361,141.542 339.680 C 141.284 340.087,141.211 340.090,141.206 339.695 C 141.200 339.178,83.606 338.927,83.091 339.443 M168.933 339.771 C 169.054 340.085,168.923 340.532,168.643 340.764 C 168.270 341.074,168.133 341.032,168.133 340.611 C 168.133 340.294,168.311 340.145,168.528 340.279 C 168.757 340.421,168.796 340.318,168.622 340.035 C 168.295 339.507,167.894 339.729,167.760 340.512 C 167.715 340.780,167.555 341.304,167.405 341.675 C 167.181 342.232,167.336 342.324,168.290 342.204 C 168.926 342.123,169.681 342.203,169.967 342.380 C 170.281 342.574,169.873 342.682,168.944 342.651 L 167.400 342.600 167.293 371.300 L 167.186 400.000 199.793 400.000 L 232.400 400.000 232.463 372.500 C 232.498 357.375,232.552 344.235,232.582 343.300 C 232.613 342.365,232.500 341.600,232.332 341.600 C 232.163 341.600,232.125 341.339,232.248 341.019 C 232.602 340.097,232.034 339.473,231.355 340.037 C 230.890 340.423,230.829 340.389,231.034 339.857 C 231.328 339.090,230.773 338.987,230.080 339.680 C 229.707 340.053,229.600 340.052,229.600 339.675 C 229.600 339.300,222.925 339.194,200.000 339.205 C 177.598 339.216,170.400 339.334,170.400 339.690 C 170.400 340.045,170.282 340.042,169.920 339.680 C 169.261 339.021,168.667 339.076,168.933 339.771 M255.300 339.831 C 254.936 340.221,254.816 347.531,254.805 370.173 L 254.790 400.000 285.995 400.000 L 317.200 400.000 317.200 369.824 C 317.200 347.445,317.081 339.573,316.738 339.362 C 316.429 339.171,316.382 339.262,316.597 339.638 C 316.856 340.093,316.814 340.104,316.379 339.700 C 316.082 339.425,315.685 339.200,315.496 339.200 C 315.307 339.200,315.280 339.425,315.435 339.700 C 315.661 340.100,315.610 340.100,315.179 339.700 C 314.390 338.968,258.803 338.968,258.794 339.700 C 258.789 340.079,258.714 340.085,258.485 339.724 C 258.089 339.101,255.914 339.174,255.300 339.831 M339.372 339.645 C 339.221 339.889,339.320 340.227,339.591 340.395 C 339.943 340.612,339.958 340.779,339.643 340.974 C 339.326 341.170,339.200 349.582,339.200 370.624 L 339.200 400.000 369.600 400.000 L 400.000 400.000 400.000 369.600 L 400.000 339.200 370.680 339.200 C 348.409 339.200,341.245 339.315,340.880 339.680 C 340.507 340.053,340.400 340.053,340.400 339.680 C 340.400 339.076,339.738 339.054,339.372 339.645 " stroke="none" fill="#8ca4f4" fill-rule="evenodd"></path><path id="path2" d="" stroke="none" fill="#e4100f8" fill-rule="evenodd"></path><path id="path3" d="M232.589 27.400 C 232.589 42.580,232.639 48.732,232.700 41.071 C 232.761 33.410,232.761 20.990,232.700 13.471 C 232.639 5.952,232.589 12.220,232.589 27.400 M175.689 87.823 L 174.800 88.445 174.800 114.200 L 174.800 139.955 175.689 140.577 C 176.471 141.125,179.601 141.200,201.600 141.200 C 223.599 141.200,226.729 141.125,227.511 140.577 L 228.400 139.955 228.400 114.200 L 228.400 88.445 227.511 87.823 C 226.729 87.275,223.599 87.200,201.600 87.200 C 179.601 87.200,176.471 87.275,175.689 87.823 M227.120 88.880 C 227.814 89.574,227.814 138.826,227.120 139.520 C 226.426 140.214,176.774 140.214,176.080 139.520 C 175.386 138.826,175.386 89.574,176.080 88.880 C 176.774 88.186,226.426 88.186,227.120 88.880 M88.070 172.526 L 87.200 173.452 87.200 198.664 C 87.200 222.581,87.238 223.910,87.931 224.538 C 89.118 225.612,139.563 225.545,140.538 224.469 C 141.139 223.804,141.200 221.425,141.200 198.538 L 141.200 173.339 140.274 172.470 L 139.348 171.600 114.144 171.600 L 88.939 171.600 88.070 172.526 M260.089 172.223 L 259.200 172.845 259.200 198.609 C 259.200 223.671,259.221 224.383,259.974 224.786 C 260.484 225.059,269.358 225.200,286.000 225.200 C 302.642 225.200,311.516 225.059,312.026 224.786 C 312.779 224.383,312.800 223.671,312.800 198.609 L 312.800 172.845 311.911 172.223 C 311.129 171.675,307.999 171.600,286.000 171.600 C 264.001 171.600,260.871 171.675,260.089 172.223 M139.800 198.600 L 139.800 224.200 114.200 224.200 L 88.600 224.200 88.496 199.000 C 88.439 185.140,88.479 173.574,88.585 173.297 C 88.737 172.899,94.092 172.816,114.289 172.897 L 139.800 173.000 139.800 198.600 M311.520 173.280 C 312.214 173.974,312.214 223.226,311.520 223.920 C 310.826 224.614,261.174 224.614,260.480 223.920 C 259.786 223.226,259.786 173.974,260.480 173.280 C 261.174 172.586,310.826 172.586,311.520 173.280 M232.589 200.200 C 232.589 214.940,232.639 220.912,232.700 213.471 C 232.761 206.030,232.761 193.970,232.700 186.671 C 232.639 179.372,232.589 185.460,232.589 200.200 M13.729 232.700 C 21.390 232.761,33.810 232.761,41.329 232.700 C 48.848 232.639,42.580 232.589,27.400 232.589 C 12.220 232.589,6.068 232.639,13.729 232.700 M186.929 232.700 C 194.370 232.761,206.430 232.761,213.729 232.700 C 221.028 232.639,214.940 232.589,200.200 232.589 C 185.460 232.589,179.488 232.639,186.929 232.700 M358.929 232.700 C 366.590 232.761,379.010 232.761,386.529 232.700 C 394.048 232.639,387.780 232.589,372.600 232.589 C 357.420 232.589,351.268 232.639,358.929 232.700 M172.223 260.089 C 171.675 260.871,171.600 264.001,171.600 286.000 C 171.600 307.999,171.675 311.129,172.223 311.911 L 172.845 312.800 198.609 312.800 C 223.671 312.800,224.383 312.779,224.786 312.026 C 225.059 311.516,225.200 302.642,225.200 286.000 C 225.200 269.358,225.059 260.484,224.786 259.974 C 224.383 259.221,223.671 259.200,198.609 259.200 L 172.845 259.200 172.223 260.089 M223.920 260.480 C 224.614 261.174,224.614 310.826,223.920 311.520 C 223.226 312.214,173.974 312.214,173.280 311.520 C 172.586 310.826,172.586 261.174,173.280 260.480 C 173.974 259.786,223.226 259.786,223.920 260.480 M232.589 372.600 C 232.589 387.780,232.639 393.932,232.700 386.271 C 232.761 378.610,232.761 366.190,232.700 358.671 C 232.639 351.152,232.589 357.420,232.589 372.600 " stroke="none" fill="#a8d4f8" fill-rule="evenodd"></path><path id="path4" d="M232.400 56.753 C 232.400 57.132,230.863 57.734,230.200 57.615 C 229.980 57.575,230.011 57.758,230.269 58.020 C 230.527 58.283,230.634 58.767,230.507 59.097 C 230.336 59.543,230.499 59.508,231.139 58.960 C 232.157 58.088,232.210 57.945,231.400 58.255 C 231.070 58.382,230.800 58.372,230.800 58.233 C 230.800 58.094,231.250 57.809,231.800 57.600 C 232.645 57.279,233.231 56.400,232.600 56.400 C 232.490 56.400,232.400 56.559,232.400 56.753 M176.080 88.880 C 175.386 89.574,175.386 138.826,176.080 139.520 C 176.774 140.214,226.426 140.214,227.120 139.520 C 227.814 138.826,227.814 89.574,227.120 88.880 C 226.426 88.186,176.774 88.186,176.080 88.880 M227.000 114.200 L 227.000 139.400 201.600 139.400 L 176.200 139.400 176.096 114.600 C 176.039 100.960,176.079 89.574,176.185 89.297 C 176.337 88.899,181.652 88.815,201.689 88.897 L 227.000 89.000 227.000 114.200 M342.200 168.800 C 342.239 169.463,342.370 170.103,342.490 170.223 C 342.610 170.344,342.681 169.905,342.648 169.248 C 342.615 168.592,342.485 167.952,342.358 167.825 C 342.232 167.699,342.161 168.137,342.200 168.800 M88.585 173.297 C 88.479 173.574,88.439 185.140,88.496 199.000 L 88.600 224.200 114.200 224.200 L 139.800 224.200 139.800 198.600 L 139.800 173.000 114.289 172.897 C 94.092 172.816,88.737 172.899,88.585 173.297 M260.480 173.280 C 259.786 173.974,259.786 223.226,260.480 223.920 C 261.174 224.614,310.826 224.614,311.520 223.920 C 312.214 223.226,312.214 173.974,311.520 173.280 C 310.826 172.586,261.174 172.586,260.480 173.280 M139.600 198.600 L 139.600 224.000 114.200 224.000 L 88.800 224.000 88.800 198.600 L 88.800 173.200 114.200 173.200 L 139.600 173.200 139.600 198.600 M311.400 198.600 L 311.400 223.800 286.000 223.800 L 260.600 223.800 260.496 199.000 C 260.439 185.360,260.479 173.974,260.585 173.697 C 260.737 173.299,266.052 173.215,286.089 173.297 L 311.400 173.400 311.400 198.600 M57.635 230.200 C 57.761 230.748,57.153 232.135,56.629 232.494 C 56.343 232.690,56.370 232.790,56.710 232.794 C 56.990 232.797,57.391 232.350,57.600 231.800 C 57.809 231.250,58.094 230.800,58.233 230.800 C 58.372 230.800,58.382 231.070,58.255 231.400 C 57.945 232.210,58.088 232.157,58.960 231.139 C 59.508 230.499,59.543 230.336,59.097 230.507 C 58.767 230.634,58.283 230.527,58.020 230.269 C 57.758 230.011,57.584 229.980,57.635 230.200 M173.280 260.480 C 172.586 261.174,172.586 310.826,173.280 311.520 C 173.974 312.214,223.226 312.214,223.920 311.520 C 224.614 310.826,224.614 261.174,223.920 260.480 C 223.226 259.786,173.974 259.786,173.280 260.480 M223.800 286.000 L 223.800 311.400 198.600 311.400 L 173.400 311.400 173.296 286.400 C 173.239 272.650,173.279 261.174,173.385 260.897 C 173.537 260.499,178.812 260.415,198.689 260.497 L 223.800 260.600 223.800 286.000 M167.825 342.358 C 167.952 342.485,168.592 342.615,169.248 342.648 C 169.905 342.681,170.344 342.610,170.223 342.490 C 170.103 342.370,169.463 342.239,168.800 342.200 C 168.137 342.161,167.699 342.232,167.825 342.358 " stroke="none" fill="#aca4f8" fill-rule="evenodd"></path></g></svg>